<?xml version="1.0" encoding="UTF-8"?>
<svg id="Calque_1" data-name="Calque 1" xmlns="http://www.w3.org/2000/svg" viewBox="0 0 192.989 217.452">
  <defs>
    <style>
      .cls-1 {
        fill: #bcbcbc;
      }

      .cls-1, .cls-2 {
        stroke-width: 0px;
      }

      .cls-2 {
        fill: #fff;
      }
    </style>
  </defs>
  <path class="cls-1" d="m155.518,87.759c-4.662-1.852-9.492-1.005-14.423-1.287v36.628c2.867,0,5.65.076,8.428-.014,8.556-.276,15.963-6.722,17.312-14.991,1.442-8.838-3.199-17.112-11.317-20.337Z"/>
  <path class="cls-1" d="m138.138,86.564c-1.863,0-3.541,0-5.22,0-11.414.006-19.787,8.362-19.793,19.769-.007,12.186-.004,26.151-.004,38.337h5.223c11.437-.034,19.779-8.364,19.791-19.79.013-12.186.003-24.372.003-36.557v-1.758Zm-4.659,39.203c-.054,8.295-7.483,15.032-15.677,14.183l-.073-1.386.007-32.371c.037-8.569,6.535-15.136,14.805-15.074.241.002.483.034.818.059.049.418.133.796.133,1.174.007,11.138.061,22.277-.012,33.415Z"/>
  <path class="cls-2" d="m107.635,144.553c-.531.03-.913.068-1.296.07-13.105.074-23.402-7.729-23.46-17.91l-.011-38.462.116-1.647c12.984-1.009,24.756,6.996,24.842,16.851.115,13.234.03,26.468.019,39.703,0,.449-.132.898-.21,1.395Z"/>
  <path class="cls-2" d="m80.301,144.553c-.531.03-.913.068-1.296.07-13.105.074-23.402-7.729-23.46-17.91l-.011-38.462.116-1.647c12.984-1.009,24.756,6.996,24.842,16.851.115,13.234.03,26.468.019,39.703,0,.449-.132.898-.21,1.395Z"/>
  <path class="cls-2" d="m52.966,144.553c-.531.03-.913.068-1.296.07-13.105.074-23.402-7.729-23.46-17.91l-.011-38.462.116-1.647c12.984-1.009,24.756,6.996,24.842,16.851.115,13.234.03,26.468.019,39.703,0,.449-.132.898-.21,1.395Z"/>
</svg>